<svg id="svg4200" xmlns:rdf="http://www.w3.org/1999/02/22-rdf-syntax-ns#" xmlns="http://www.w3.org/2000/svg" height="124.1mm" width="186.6mm" version="1.1" xmlns:cc="http://creativecommons.org/ns#" xmlns:dc="http://purl.org/dc/elements/1.1/" viewBox="0 0 661.14306 439.63815">
  <path id="path4202" fill="#e3e3e3" d="m304 0c-53.76-6.196-95.72 45.51-118.5 77.16-32.85-13.66-72.78 15.26-69.92 50.77-82.72 4.351-140.7 100.9-105.6 175.9 20.36 51.47 75.98 81.46 129.9 77.63 46.73 46.89 127.3 51.92 180.7 13.64 55.6 64.02 171.3 58.23 217.5-13.89 80.84 0.367 143.9-88.34 117.3-164.5-14.4-48.7-60.8-85.7-111.7-89-9.3-64.01-84.1-105.9-143.6-80.23-22.4-29.56-59-47.56-96.1-47.37z"/>
</svg>
